<svg width="253" height="154" fill="none" xmlns="http://www.w3.org/2000/svg"><g filter="url('#filter0_d_8590_532')"><path d="M93.64 55.592h6.432v.912H93.64v-.912Zm2.752 3.664v-6.432h.912v6.432h-.912ZM106.319 61v-.16h-.336a.915.915 0 0 1-.624-.24.83.83 0 0 1-.256-.608V49.576h-.16c-.235.17-.512.32-.832.448a9.77 9.77 0 0 1-.992.304c-.331.075-.651.133-.96.176-.309.043-.571.075-.784.096v.16h.416c.288 0 .512.075.672.224.171.15.256.4.256.752v8.24a.83.83 0 0 1-.256.608.85.85 0 0 1-.624.256h-.336l-.016.16h4.832Zm6.185-7.792-.768-2.464a3.781 3.781 0 0 1 1.008-.624 7.086 7.086 0 0 1 2.672-.544c.8 0 1.515.133 2.144.4.63.256 1.12.624 1.472 1.104.352.47.528 1.045.528 1.728a3.73 3.73 0 0 1-.336 1.536c-.224.49-.522.96-.896 1.408-.362.437-.757.853-1.184 1.248-.426.395-.848.752-1.264 1.072-.405.32-.768.608-1.088.864h3.28c.32 0 .598-.053.832-.16a1.81 1.81 0 0 0 .656-.496c.203-.235.395-.533.576-.896h.16L119.352 61h-7.648v-.16c.427-.48.88-.987 1.36-1.52.48-.544.95-1.099 1.408-1.664.47-.565.896-1.136 1.28-1.712a9.46 9.46 0 0 0 .912-1.696c.224-.565.336-1.104.336-1.616 0-.757-.192-1.355-.576-1.792-.384-.437-.906-.635-1.568-.592-.704.043-1.248.315-1.632.816-.373.49-.56 1.205-.56 2.144h-.16ZM126.475 61v-.16h-.336a.918.918 0 0 1-.624-.24.833.833 0 0 1-.256-.608V49.576h-.16c-.234.17-.512.32-.832.448-.32.117-.65.219-.992.304-.33.075-.65.133-.96.176-.309.043-.57.075-.784.096v.16h.416c.288 0 .512.075.672.224.171.15.256.4.256.752v8.24a.83.83 0 0 1-.256.608.847.847 0 0 1-.624.256h-.336l-.016.16h4.832Zm2.186-7.792-.768-2.464a3.75 3.75 0 0 1 1.008-.624 7.038 7.038 0 0 1 2.672-.544c.8 0 1.514.133 2.144.4.629.256 1.12.624 1.472 1.104.352.47.528 1.045.528 1.728a3.73 3.73 0 0 1-.336 1.536c-.224.49-.523.96-.896 1.408-.363.437-.758.853-1.184 1.248-.427.395-.848.752-1.264 1.072-.406.32-.768.608-1.088.864h3.28c.32 0 .597-.053.832-.16.245-.107.464-.272.656-.496.202-.235.394-.533.576-.896h.16L135.509 61h-7.648v-.16c.426-.48.88-.987 1.36-1.52.48-.544.949-1.099 1.408-1.664.469-.565.896-1.136 1.28-1.712a9.46 9.46 0 0 0 .912-1.696c.224-.565.336-1.104.336-1.616 0-.757-.192-1.355-.576-1.792-.384-.437-.907-.635-1.568-.592-.704.043-1.248.315-1.632.816-.374.49-.56 1.205-.56 2.144h-.16Zm9.135 2.592h4.8l.128.528-.128.544h-4.8l-.128-.544.128-.528Zm12.526-3.888-4.464.336-.464 1.792c.886-.213 1.686-.277 2.4-.192.726.075 1.344.272 1.856.592.512.32.896.741 1.152 1.264.267.523.384 1.125.352 1.808-.032.79-.24 1.467-.624 2.032a4.434 4.434 0 0 1-1.44 1.376c-.576.352-1.2.603-1.872.752a6.363 6.363 0 0 1-1.936.176c-.618-.032-1.162-.15-1.632-.352l.032-.16c.267.01.598-.027.992-.112a5.933 5.933 0 0 0 1.248-.384c.438-.181.848-.41 1.232-.688.384-.288.704-.63.96-1.024.256-.405.4-.864.432-1.376.054-.661-.112-1.184-.496-1.568-.384-.384-.912-.608-1.584-.672-.661-.064-1.408.064-2.24.384l-.144-.08 1.296-5.44 4.144-.336c.342 0 .608-.075.8-.224.192-.15.347-.341.464-.576h.16l-.624 2.672Zm5.617-2.304c.768-.01 1.424.09 1.968.304.555.213.982.517 1.28.912.299.384.448.848.448 1.392 0 .427-.085.805-.256 1.136a2.507 2.507 0 0 1-1.6 1.28 1.88 1.88 0 0 1-.944-.016c.331 0 .678.059 1.04.176a3.26 3.26 0 0 1 1.056.528c.331.235.598.55.8.944.203.395.304.875.304 1.44 0 .65-.144 1.237-.432 1.76a4.013 4.013 0 0 1-1.184 1.328 5.403 5.403 0 0 1-1.712.816 6.624 6.624 0 0 1-2.016.272 6.674 6.674 0 0 1-2.08-.368l.032-.16a5.773 5.773 0 0 0 1.84-.256 4.881 4.881 0 0 0 1.552-.752c.448-.341.8-.752 1.056-1.232s.384-1.008.384-1.584c0-.64-.149-1.152-.448-1.536a2.477 2.477 0 0 0-1.136-.864 4.133 4.133 0 0 0-1.504-.272l.032-.16c.491.01.95-.096 1.376-.32.438-.235.784-.56 1.04-.976.267-.416.374-.896.32-1.44a1.829 1.829 0 0 0-.288-.928c-.17-.256-.4-.448-.688-.576-.277-.139-.602-.197-.976-.176-.65.032-1.13.283-1.44.752-.298.459-.437 1.12-.416 1.984h-.16l-.656-2.272c.352-.32.811-.587 1.376-.8.576-.213 1.254-.325 2.032-.336Zm12.024 2.304-4.464.336-.464 1.792c.885-.213 1.685-.277 2.4-.192.725.075 1.344.272 1.856.592.512.32.896.741 1.152 1.264.267.523.384 1.125.352 1.808-.032.79-.24 1.467-.624 2.032a4.434 4.434 0 0 1-1.44 1.376c-.576.352-1.2.603-1.872.752a6.366 6.366 0 0 1-1.936.176c-.619-.032-1.163-.15-1.632-.352l.032-.16c.267.01.597-.027.992-.112a5.969 5.969 0 0 0 1.248-.384c.437-.181.848-.41 1.232-.688.384-.288.704-.63.96-1.024.256-.405.4-.864.432-1.376.053-.661-.112-1.184-.496-1.568-.384-.384-.912-.608-1.584-.672-.661-.064-1.408.064-2.24.384l-.144-.08 1.296-5.44 4.144-.336c.341 0 .608-.075.8-.224.192-.15.347-.341.464-.576h.16l-.624 2.672Zm2.411 3.888h4.8l.128.528-.128.544h-4.8l-.128-.544.128-.528Zm4.648-2.992h.16c.117-.32.267-.56.448-.72.181-.16.432-.24.752-.24h4.88l-1.056 2.528c-.139.31-.315.688-.528 1.136a95.797 95.797 0 0 1-1.424 2.912 56.08 56.08 0 0 1-.72 1.424 48.89 48.89 0 0 1-.592 1.152h2.096c.075-.31.181-.688.32-1.136.139-.448.288-.923.448-1.424l.512-1.504c.171-.501.331-.96.48-1.376.16-.427.299-.779.416-1.056l1.92-4.704-7.664.032-.448 2.976Zm8.719 0h.16c.117-.32.266-.56.448-.72.181-.16.432-.24.752-.24h4.88l-1.056 2.528c-.139.31-.315.688-.528 1.136-.203.437-.427.907-.672 1.408-.246.501-.496 1.003-.752 1.504a63.58 63.58 0 0 1-.72 1.424 53.04 53.04 0 0 1-.592 1.152h2.096c.074-.31.181-.688.32-1.136.138-.448.288-.923.448-1.424l.512-1.504c.17-.501.33-.96.48-1.376a27.1 27.1 0 0 1 .416-1.056l1.92-4.704-7.664.032-.448 2.976ZM197.804 61v-.16h-.336a.915.915 0 0 1-.624-.24.83.83 0 0 1-.256-.608V49.576h-.16c-.235.17-.512.32-.832.448a9.77 9.77 0 0 1-.992.304c-.331.075-.651.133-.96.176-.31.043-.571.075-.784.096v.16h.416c.288 0 .512.075.672.224.17.15.256.4.256.752v8.24a.833.833 0 0 1-.256.608.85.85 0 0 1-.624.256h-.336l-.016.16h4.832Zm5.897-11.424c.938 0 1.738.24 2.4.72.672.48 1.184 1.157 1.536 2.032.362.864.544 1.888.544 3.072 0 1.184-.182 2.213-.544 3.088-.352.864-.864 1.536-1.536 2.016-.662.48-1.462.72-2.4.72-.939 0-1.744-.24-2.416-.72-.672-.48-1.19-1.152-1.552-2.016-.352-.875-.528-1.904-.528-3.088 0-1.184.176-2.208.528-3.072.362-.875.88-1.552 1.552-2.032s1.477-.72 2.416-.72Zm0 .672c-.662 0-1.163.437-1.504 1.312-.342.864-.512 2.144-.512 3.84 0 1.696.17 2.981.512 3.856.341.864.842 1.296 1.504 1.296.65 0 1.146-.432 1.488-1.296.341-.875.512-2.16.512-3.856 0-1.696-.171-2.976-.512-3.84-.342-.875-.838-1.312-1.488-1.312Z" fill="#fff"/></g><g filter="url('#filter1_d_8590_532')"><path d="M87.64 117.592h6.432v.912H87.64v-.912Zm2.752 3.664v-6.432h.912v6.432h-.912Zm9.927 1.744v-.16h-.336a.916.916 0 0 1-.624-.24.83.83 0 0 1-.256-.608v-10.416h-.16c-.234.171-.512.32-.832.448a9.74 9.74 0 0 1-.992.304c-.33.075-.65.133-.96.176-.31.043-.57.075-.784.096v.16h.416c.288 0 .512.075.672.224.17.149.256.4.256.752v8.24a.83.83 0 0 1-.256.608.848.848 0 0 1-.624.256h-.336l-.016.16h4.832Zm6.185-7.792-.768-2.464a3.797 3.797 0 0 1 1.008-.624 7.063 7.063 0 0 1 2.672-.544c.8 0 1.515.133 2.144.4.63.256 1.12.624 1.472 1.104.352.469.528 1.045.528 1.728 0 .523-.112 1.035-.336 1.536a6.23 6.23 0 0 1-.896 1.408c-.362.437-.757.853-1.184 1.248-.426.395-.848.752-1.264 1.072-.405.32-.768.608-1.088.864h3.28c.32 0 .598-.053.832-.16.246-.107.464-.272.656-.496.203-.235.395-.533.576-.896h.16l-.944 3.616h-7.648v-.16c.427-.48.88-.987 1.36-1.52.48-.544.95-1.099 1.408-1.664.47-.565.896-1.136 1.28-1.712a9.45 9.45 0 0 0 .912-1.696c.224-.565.336-1.104.336-1.616 0-.757-.192-1.355-.576-1.792-.384-.437-.906-.635-1.568-.592-.704.043-1.248.315-1.632.816-.373.491-.56 1.205-.56 2.144h-.16ZM120.475 123v-.16h-.336a.918.918 0 0 1-.624-.24.833.833 0 0 1-.256-.608v-10.416h-.16c-.234.171-.512.32-.832.448-.32.117-.65.219-.992.304-.33.075-.65.133-.96.176-.309.043-.57.075-.784.096v.16h.416c.288 0 .512.075.672.224.171.149.256.4.256.752v8.24a.83.83 0 0 1-.256.608.846.846 0 0 1-.624.256h-.336l-.016.16h4.832Zm2.186-7.792-.768-2.464a3.765 3.765 0 0 1 1.008-.624 7.015 7.015 0 0 1 2.672-.544c.8 0 1.514.133 2.144.4.629.256 1.12.624 1.472 1.104.352.469.528 1.045.528 1.728 0 .523-.112 1.035-.336 1.536-.224.491-.523.96-.896 1.408-.363.437-.758.853-1.184 1.248a18.28 18.28 0 0 1-1.264 1.072c-.406.32-.768.608-1.088.864h3.28c.32 0 .597-.053.832-.16.245-.107.464-.272.656-.496.202-.235.394-.533.576-.896h.16l-.944 3.616h-7.648v-.16c.426-.48.88-.987 1.36-1.52a53.52 53.52 0 0 0 1.408-1.664 20.41 20.41 0 0 0 1.28-1.712 9.45 9.45 0 0 0 .912-1.696c.224-.565.336-1.104.336-1.616 0-.757-.192-1.355-.576-1.792-.384-.437-.907-.635-1.568-.592-.704.043-1.248.315-1.632.816-.374.491-.56 1.205-.56 2.144h-.16Zm9.135 2.592h4.8l.128.528-.128.544h-4.8l-.128-.544.128-.528Zm7.285 5.808-.064-.112c.992-.299 1.787-.672 2.384-1.12.608-.459 1.067-.981 1.376-1.568.32-.597.533-1.253.64-1.968.107-.725.16-1.515.16-2.368 0-.875-.048-1.616-.144-2.224-.096-.619-.267-1.083-.512-1.392-.245-.309-.597-.464-1.056-.464-.437 0-.784.133-1.04.4-.245.267-.421.619-.528 1.056a6.343 6.343 0 0 0-.144 1.392c.011.576.069 1.051.176 1.424.107.363.256.64.448.832.203.181.443.288.72.32.277.053.539.037.784-.048.256-.096.464-.224.624-.384l.112.128a2.488 2.488 0 0 1-.8.832 3.118 3.118 0 0 1-2.32.352 2.881 2.881 0 0 1-1.104-.544 2.795 2.795 0 0 1-.816-1.072c-.192-.448-.288-.992-.288-1.632.011-.736.171-1.387.48-1.952a3.423 3.423 0 0 1 1.392-1.36c.619-.331 1.376-.501 2.272-.512 1.397-.021 2.48.384 3.248 1.216.768.832 1.152 2.096 1.152 3.792a8.702 8.702 0 0 1-.448 2.832 6.238 6.238 0 0 1-1.328 2.272c-.587.64-1.328 1.125-2.224 1.456-.885.341-1.936.48-3.152.416Zm9.236-8.4-.768-2.464a3.765 3.765 0 0 1 1.008-.624 7.015 7.015 0 0 1 2.672-.544c.8 0 1.515.133 2.144.4.629.256 1.12.624 1.472 1.104.352.469.528 1.045.528 1.728 0 .523-.112 1.035-.336 1.536-.224.491-.523.96-.896 1.408-.363.437-.757.853-1.184 1.248a18.28 18.28 0 0 1-1.264 1.072c-.405.32-.768.608-1.088.864h3.28c.32 0 .597-.053.832-.16.245-.107.464-.272.656-.496.203-.235.395-.533.576-.896h.16l-.944 3.616h-7.648v-.16c.427-.48.88-.987 1.36-1.52a53.52 53.52 0 0 0 1.408-1.664 20.41 20.41 0 0 0 1.28-1.712 9.45 9.45 0 0 0 .912-1.696c.224-.565.336-1.104.336-1.616 0-.757-.192-1.355-.576-1.792-.384-.437-.907-.635-1.568-.592-.704.043-1.248.315-1.632.816-.373.491-.56 1.205-.56 2.144h-.16Zm12.138-3.6c.768-.011 1.424.091 1.968.304.555.213.981.517 1.28.912.299.384.448.848.448 1.392 0 .427-.085.805-.256 1.136a2.483 2.483 0 0 1-1.6 1.28 1.88 1.88 0 0 1-.944-.016c.331 0 .677.059 1.04.176.373.107.725.283 1.056.528.331.235.597.549.8.944.203.395.304.875.304 1.44 0 .651-.144 1.237-.432 1.76a4.024 4.024 0 0 1-1.184 1.328 5.39 5.39 0 0 1-1.712.816 6.615 6.615 0 0 1-2.016.272 6.674 6.674 0 0 1-2.08-.368l.032-.16a5.773 5.773 0 0 0 1.84-.256 4.881 4.881 0 0 0 1.552-.752 3.76 3.76 0 0 0 1.056-1.232c.256-.48.384-1.008.384-1.584 0-.64-.149-1.152-.448-1.536a2.478 2.478 0 0 0-1.136-.864 4.144 4.144 0 0 0-1.504-.272l.032-.16c.491.011.949-.096 1.376-.32.437-.235.784-.56 1.04-.976.267-.416.373-.896.32-1.44a1.828 1.828 0 0 0-.288-.928 1.581 1.581 0 0 0-.688-.576c-.277-.139-.603-.197-.976-.176-.651.032-1.131.283-1.44.752-.299.459-.437 1.12-.416 1.984h-.16l-.656-2.272c.352-.32.811-.587 1.376-.8.576-.213 1.253-.325 2.032-.336Zm5.716 6.192h4.8l.128.528-.128.544h-4.8l-.128-.544.128-.528Zm8.737-6.192c.768-.011 1.424.091 1.968.304.555.213.981.517 1.28.912.299.384.448.848.448 1.392 0 .427-.085.805-.256 1.136a2.483 2.483 0 0 1-1.6 1.28 1.88 1.88 0 0 1-.944-.016c.331 0 .677.059 1.04.176.373.107.725.283 1.056.528.331.235.597.549.8.944.203.395.304.875.304 1.44 0 .651-.144 1.237-.432 1.76a4.024 4.024 0 0 1-1.184 1.328 5.39 5.39 0 0 1-1.712.816 6.615 6.615 0 0 1-2.016.272 6.674 6.674 0 0 1-2.08-.368l.032-.16a5.773 5.773 0 0 0 1.84-.256 4.881 4.881 0 0 0 1.552-.752 3.76 3.76 0 0 0 1.056-1.232c.256-.48.384-1.008.384-1.584 0-.64-.149-1.152-.448-1.536a2.478 2.478 0 0 0-1.136-.864 4.144 4.144 0 0 0-1.504-.272l.032-.16c.491.011.949-.096 1.376-.32.437-.235.784-.56 1.04-.976.267-.416.373-.896.32-1.44a1.828 1.828 0 0 0-.288-.928 1.581 1.581 0 0 0-.688-.576c-.277-.139-.603-.197-.976-.176-.651.032-1.131.283-1.44.752-.299.459-.437 1.12-.416 1.984h-.16l-.656-2.272c.352-.32.811-.587 1.376-.8.576-.213 1.253-.325 2.032-.336Zm5.302 3.2h.16c.117-.32.266-.56.448-.72.181-.16.432-.24.752-.24h4.88l-1.056 2.528a60.86 60.86 0 0 1-.528 1.136c-.203.437-.427.907-.672 1.408-.246.501-.496 1.003-.752 1.504-.246.501-.486.976-.72 1.424a53.04 53.04 0 0 1-.592 1.152h2.096c.074-.309.181-.688.32-1.136.138-.448.288-.923.448-1.424l.512-1.504c.17-.501.33-.96.48-1.376.16-.427.298-.779.416-1.056l1.92-4.704-7.664.032-.448 2.976Zm13.178-3.232c.939 0 1.739.24 2.4.72.672.48 1.184 1.157 1.536 2.032.363.864.544 1.888.544 3.072 0 1.184-.181 2.213-.544 3.088-.352.864-.864 1.536-1.536 2.016-.661.48-1.461.72-2.4.72-.938 0-1.744-.24-2.416-.72-.672-.48-1.189-1.152-1.552-2.016-.352-.875-.528-1.904-.528-3.088 0-1.184.176-2.208.528-3.072.363-.875.88-1.552 1.552-2.032s1.478-.72 2.416-.72Zm0 .672c-.661 0-1.162.437-1.504 1.312-.341.864-.512 2.144-.512 3.84 0 1.696.171 2.981.512 3.856.342.864.843 1.296 1.504 1.296.651 0 1.147-.432 1.488-1.296.342-.875.512-2.16.512-3.856 0-1.696-.17-2.976-.512-3.84-.341-.875-.837-1.312-1.488-1.312Zm10.391-.672c.939 0 1.739.24 2.4.72.672.48 1.184 1.157 1.536 2.032.363.864.544 1.888.544 3.072 0 1.184-.181 2.213-.544 3.088-.352.864-.864 1.536-1.536 2.016-.661.48-1.461.72-2.4.72-.939 0-1.744-.24-2.416-.72-.672-.48-1.189-1.152-1.552-2.016-.352-.875-.528-1.904-.528-3.088 0-1.184.176-2.208.528-3.072.363-.875.88-1.552 1.552-2.032s1.477-.72 2.416-.72Zm0 .672c-.661 0-1.163.437-1.504 1.312-.341.864-.512 2.144-.512 3.84 0 1.696.171 2.981.512 3.856.341.864.843 1.296 1.504 1.296.651 0 1.147-.432 1.488-1.296.341-.875.512-2.16.512-3.856 0-1.696-.171-2.976-.512-3.84-.341-.875-.837-1.312-1.488-1.312Z" fill="#fff"/></g><g filter="url('#filter2_d_8590_532')"><path d="M14.544 22.848V34h-2.4V22.848h2.4Zm3.92-.064v.672H8.224v-.672h10.24Zm0 .624v1.888l-.16-.016v-.176c0-.501-.15-.896-.448-1.184-.288-.299-.683-.453-1.184-.464v-.048h1.792Zm0-.912v.464l-1.952-.176c.235 0 .48-.016.736-.048.267-.032.512-.07.736-.112.224-.043.384-.085.48-.128Zm-6.272 10.336V34h-1.28v-.16H11.12a.958.958 0 0 0 .704-.288c.203-.203.31-.443.32-.72h.048Zm2.304 0h.048c.01.277.112.517.304.72.203.192.443.288.72.288H15.776V34h-1.28v-1.168ZM10 23.408v.048c-.49.01-.885.165-1.184.464-.288.288-.432.683-.432 1.184v.176l-.16.016v-1.888H10Zm-1.776-.912c.107.043.267.085.48.128.224.043.47.08.736.112.267.032.512.048.736.048l-1.952.176v-.464Zm22.336.304V34h-2.4V22.8h2.4Zm-7.584 0V34h-2.4V22.8h2.4Zm5.328 5.28v.688h-5.488v-.688h5.488Zm-7.68 4.752V34h-1.28v-.16H19.552a.958.958 0 0 0 .704-.288c.203-.203.31-.443.32-.72h.048Zm0-8.864h-.048a.989.989 0 0 0-.32-.704.933.933 0 0 0-.704-.304H19.344v-.16h1.28v1.168Zm2.304 8.864h.048c.01.277.112.517.304.72.203.192.442.288.72.288H24.208V34h-1.28v-1.168Zm0-8.864V22.8h1.28v.16H24a.984.984 0 0 0-.72.304 1.016 1.016 0 0 0-.304.704h-.048Zm5.28 8.864V34h-1.28v-.16H27.136a1.012 1.012 0 0 0 1.024-1.008h.048Zm0-8.864h-.048a.933.933 0 0 0-.304-.704.984.984 0 0 0-.72-.304H26.928v-.16h1.28v1.168Zm2.304 8.864h.048c.01.277.112.517.304.72.203.192.442.288.72.288H31.792V34h-1.28v-1.168Zm0-8.864V22.8h1.28v.16H31.584a.984.984 0 0 0-.72.304 1.016 1.016 0 0 0-.304.704h-.048Zm6.26-1.168V34h-2.4V22.8h2.4Zm4.225 10.512.384.688h-4.656v-.688h4.272Zm-.592-5.168v.672h-3.68v-.672h3.68Zm.784-5.344v.688h-4.464V22.8h4.464Zm.976 7.92L41.429 34h-3.136l.576-.688c.533 0 1.002-.101 1.408-.304a3.089 3.089 0 0 0 1.04-.896 4.85 4.85 0 0 0 .688-1.392h.16Zm-1.76-1.936v1.536h-.16v-.128c0-.395-.128-.72-.384-.976s-.582-.39-.976-.4v-.032h1.52Zm0-2.144v1.536h-1.52v-.032c.394-.01.72-.144.976-.4.256-.267.384-.597.384-.992v-.112h.16Zm.784-3.2v1.872h-.16v-.192c0-.49-.15-.885-.448-1.184-.288-.299-.683-.453-1.184-.464v-.032h1.792Zm0-.928v.464l-1.952-.176c.234 0 .48-.016.736-.048.266-.032.512-.07.736-.112.224-.043.384-.085.48-.128Zm-6.768 10.32V34h-1.28v-.16H33.349a.958.958 0 0 0 .704-.288c.202-.203.31-.443.32-.72h.048Zm0-8.864h-.048a.989.989 0 0 0-.32-.704.933.933 0 0 0-.704-.304H33.14v-.16h1.28v1.168Zm24.637-1.392.128 1.744-4.752 8.24-.16.288a5.018 5.018 0 0 0-.32.672 2.348 2.348 0 0 0-.144.8h-.16l-.624-1.392 6.032-10.352ZM48.21 32.832V34h-1.776v-.16h.256c.288 0 .544-.085.768-.256.224-.181.358-.432.4-.752h.352Zm.704.256v.08c0 .17.059.33.176.48a.592.592 0 0 0 .448.208h.24V34h-.976v-.912h.112Zm.272-10.512h.144l.56 1.6L48.818 34h-1.12l1.488-11.424Zm.144 0 5.232 8.592-.912 3.152-4.736-7.952.416-3.792Zm9.872 0L60.722 34h-2.576l-.8-7.36 1.712-4.064h.144Zm1.024 10.256h.336c.053.32.192.57.416.752.224.17.475.256.752.256h.256V34h-1.76v-1.168Zm-2.176.256h.112V34h-.976v-.144h.24a.56.56 0 0 0 .448-.208.762.762 0 0 0 .176-.48v-.08ZM66.132 22.8V34h-2.4V22.8h2.4Zm4.224 10.512.384.688h-4.656v-.688h4.272Zm-.592-5.168v.672h-3.68v-.672h3.68Zm.784-5.344v.688h-4.464V22.8h4.464Zm.976 7.92L70.788 34h-3.136l.576-.688c.534 0 1.003-.101 1.408-.304a3.088 3.088 0 0 0 1.04-.896c.288-.395.517-.859.688-1.392h.16Zm-1.76-1.936v1.536h-.16v-.128c0-.395-.128-.72-.384-.976s-.581-.39-.976-.4v-.032h1.52Zm0-2.144v1.536h-1.52v-.032c.395-.01.72-.144.976-.4.256-.267.384-.597.384-.992v-.112h.16Zm.784-3.2v1.872h-.16v-.192c0-.49-.15-.885-.448-1.184-.288-.299-.683-.453-1.184-.464v-.032h1.792Zm0-.928v.464l-1.952-.176c.235 0 .48-.016.736-.048.267-.032.512-.07.736-.112.224-.043.384-.085.48-.128Zm-6.768 10.32V34H62.5v-.16H62.708a.958.958 0 0 0 .704-.288c.203-.203.31-.443.32-.72h.048Zm0-8.864h-.048a.988.988 0 0 0-.32-.704.932.932 0 0 0-.704-.304H62.5v-.16h1.28v1.168Zm14.701-1.12V34h-2.4V22.848h2.4Zm3.92-.064v.672h-10.24v-.672h10.24Zm0 .624v1.888l-.16-.016v-.176c0-.501-.149-.896-.448-1.184-.288-.299-.682-.453-1.184-.464v-.048h1.793Zm0-.912v.464l-1.951-.176c.234 0 .48-.016.736-.048.266-.032.511-.07.735-.112.224-.043.384-.085.48-.128ZM76.13 32.832V34h-1.28v-.16H75.059a.958.958 0 0 0 .703-.288c.203-.203.31-.443.32-.72h.048Zm2.304 0h.048c.011.277.113.517.305.72.202.192.442.288.72.288H79.712V34h-1.28v-1.168Zm-4.496-9.424v.048c-.49.01-.885.165-1.183.464-.288.288-.433.683-.433 1.184v.176l-.16.016v-1.888h1.776Zm-1.775-.912c.106.043.266.085.48.128.224.043.469.08.736.112.266.032.511.048.736.048l-1.953.176v-.464Zm18.751.304V34h-2.4V22.8h2.4Zm3.632 5.344v.672h-3.68v-.672h3.68Zm.784-5.344v.688h-4.464V22.8h4.464Zm-.784 5.984v1.536h-.16v-.128c0-.395-.128-.72-.384-.976s-.581-.39-.976-.4v-.032h1.52Zm0-2.144v1.536h-1.52v-.032c.395-.01.72-.144.976-.4.256-.267.384-.597.384-.992v-.112h.16Zm.784-3.2v1.776h-.16v-.16c0-.48-.144-.859-.432-1.136-.277-.288-.656-.432-1.136-.432v-.048h1.728Zm0-.928v.464l-1.952-.176c.235 0 .48-.016.736-.048.267-.032.512-.07.736-.112.224-.043.384-.085.48-.128Zm-6.768 10.32V34h-1.28v-.16H87.49a.958.958 0 0 0 .704-.288c.203-.203.31-.443.32-.72h.048Zm0-8.864h-.048a.989.989 0 0 0-.32-.704.933.933 0 0 0-.704-.304H87.281v-.16h1.28v1.168Zm2.304 8.864h.048c.011.277.112.517.304.72.203.192.443.288.72.288H92.145V34h-1.28v-1.168Zm9.58-10.032V34h-2.4V22.8h2.4Zm-2.352 10.032V34h-1.28v-.16H97.02a.958.958 0 0 0 .704-.288c.202-.203.309-.443.32-.72h.048Zm0-8.864h-.048a.988.988 0 0 0-.32-.704.932.932 0 0 0-.704-.304H96.813v-.16h1.28v1.168Zm2.304 8.864h.048c.01.277.112.517.304.72.202.192.442.288.72.288H101.677V34h-1.28v-1.168Zm0-8.864V22.8h1.28v.16H101.469a.982.982 0 0 0-.72.304 1.013 1.013 0 0 0-.304.704h-.048Zm6.235-1.168V34h-2.4V22.8h2.4Zm3.632 5.344v.672h-3.68v-.672h3.68Zm.784-5.344v.688h-4.464V22.8h4.464Zm-.784 5.984v1.536h-.16v-.128c0-.395-.128-.72-.384-.976s-.581-.39-.976-.4v-.032h1.52Zm0-2.144v1.536h-1.52v-.032c.395-.01.72-.144.976-.4.256-.267.384-.597.384-.992v-.112h.16Zm.784-3.2v1.776h-.16v-.16c0-.48-.144-.859-.432-1.136-.277-.288-.656-.432-1.136-.432v-.048h1.728Zm0-.928v.464l-1.952-.176c.235 0 .48-.016.736-.048.267-.032.512-.07.736-.112.224-.043.384-.085.48-.128Zm-6.768 10.32V34H103v-.16H103.208a.958.958 0 0 0 .704-.288c.203-.203.309-.443.32-.72h.048Zm0-8.864h-.048a.988.988 0 0 0-.32-.704.933.933 0 0 0-.704-.304H103v-.16h1.28v1.168Zm2.304 8.864h.048c.011.277.112.517.304.72.203.192.443.288.72.288H107.864V34h-1.28v-1.168Zm11.819-9.984V34h-2.4V22.848h2.4Zm3.92-.064v.672h-10.24v-.672h10.24Zm0 .624v1.888l-.16-.016v-.176c0-.501-.149-.896-.448-1.184-.288-.299-.682-.453-1.184-.464v-.048h1.792Zm0-.912v.464l-1.952-.176c.235 0 .48-.016.736-.048.267-.032.512-.07.736-.112.224-.043.384-.085.48-.128Zm-6.272 10.336V34h-1.28v-.16H114.979a.957.957 0 0 0 .704-.288 1.04 1.04 0 0 0 .32-.72h.048Zm2.304 0h.048c.011.277.112.517.304.72.203.192.443.288.72.288H119.635V34h-1.28v-1.168Zm-4.496-9.424v.048c-.49.01-.885.165-1.184.464-.288.288-.432.683-.432 1.184v.176l-.16.016v-1.888h1.776Zm-1.776-.912c.107.043.267.085.48.128.224.043.47.08.736.112.267.032.512.048.736.048l-1.952.176v-.464Zm22.336.304V34h-2.4V22.8h2.4Zm-7.584 0V34h-2.4V22.8h2.4Zm5.328 5.28v.688h-5.488v-.688h5.488Zm-7.68 4.752V34h-1.28v-.16H123.411a.957.957 0 0 0 .704-.288 1.04 1.04 0 0 0 .32-.72h.048Zm0-8.864h-.048a.984.984 0 0 0-.32-.704.931.931 0 0 0-.704-.304H123.203v-.16h1.28v1.168Zm2.304 8.864h.048c.011.277.112.517.304.72.203.192.443.288.72.288H128.067V34h-1.28v-1.168Zm0-8.864V22.8h1.28v.16H127.859a.985.985 0 0 0-.72.304 1.018 1.018 0 0 0-.304.704h-.048Zm5.28 8.864V34h-1.28v-.16H130.995c.278 0 .518-.096.72-.288a.983.983 0 0 0 .304-.72h.048Zm0-8.864h-.048a.931.931 0 0 0-.304-.704.982.982 0 0 0-.72-.304H130.787v-.16h1.28v1.168Zm2.304 8.864h.048c.011.277.112.517.304.72.203.192.443.288.72.288H135.651V34h-1.28v-1.168Zm0-8.864V22.8h1.28v.16H135.443a.985.985 0 0 0-.72.304 1.018 1.018 0 0 0-.304.704h-.048Zm11.621-1.488 5.232 11.424h-2.88l-3.328-8.336.976-3.088Zm-3.44 10.352c-.085.213-.101.395-.048.544.053.15.144.267.272.352a.756.756 0 0 0 .384.112h.144V34h-3.424v-.16H140.024c.245 0 .496-.075.752-.224.267-.16.485-.421.656-.784h1.12Zm3.44-10.352.064 1.952-3.968 9.52h-1.168l4.144-9.376a9.46 9.46 0 0 0 .16-.352 8.74 8.74 0 0 0 .256-.608c.096-.224.181-.437.256-.64.075-.213.112-.379.112-.496h.144Zm1.68 7.712v.672h-4.704v-.672h4.704Zm.24 2.64h2.8c.181.363.4.624.656.784.256.15.507.224.752.224h.128V34h-5.088v-.16h.144c.213 0 .4-.085.56-.256.16-.181.176-.432.048-.752Zm7.898 1.488-5.296-11.424h2.864l3.424 8.336-.992 3.088Zm0 0-.048-1.952 4.064-9.52h1.152l-4.24 9.376a4.226 4.226 0 0 1-.16.368c-.075.17-.16.368-.256.592-.096.224-.181.443-.256.656a2.468 2.468 0 0 0-.112.48h-.144Zm3.536-10.352c.139-.32.123-.565-.048-.736-.171-.181-.357-.272-.56-.272h-.144v-.16h3.424v.16H161.874c-.235 0-.485.08-.752.24-.256.15-.469.405-.64.768h-1.136Zm-5.52 0h-2.816c-.171-.363-.389-.619-.656-.768-.256-.16-.507-.24-.752-.24h-.128v-.16h5.088v.16h-.144c-.203 0-.384.09-.544.272-.149.17-.165.416-.048.736Zm12.041-1.168V34h-2.4V22.8h2.4Zm4.224 10.512.384.688h-4.656v-.688h4.272Zm-.592-5.168v.672h-3.68v-.672h3.68Zm.784-5.344v.688h-4.464V22.8h4.464Zm.976 7.92-.736 3.28h-3.136l.576-.688c.533 0 1.002-.101 1.408-.304a3.092 3.092 0 0 0 1.04-.896c.288-.395.517-.859.688-1.392h.16Zm-1.76-1.936v1.536h-.16v-.128c0-.395-.128-.72-.384-.976s-.582-.39-.976-.4v-.032h1.52Zm0-2.144v1.536h-1.52v-.032c.394-.01.72-.144.976-.4.256-.267.384-.597.384-.992v-.112h.16Zm.784-3.2v1.872h-.16v-.192c0-.49-.15-.885-.448-1.184-.288-.299-.683-.453-1.184-.464v-.032h1.792Zm0-.928v.464l-1.952-.176c.234 0 .48-.016.736-.048.266-.032.512-.07.736-.112.224-.043.384-.085.48-.128Zm-6.768 10.32V34h-1.28v-.16H162.443a.958.958 0 0 0 .704-.288c.202-.203.309-.443.32-.72h.048Zm0-8.864h-.048a.992.992 0 0 0-.32-.704.933.933 0 0 0-.704-.304H162.235v-.16h1.28v1.168Zm9.822-1.408 10.208 9.728.192 1.936-10.208-9.712-.192-1.952Zm.08 10.304V34h-1.328v-.16h.304a.938.938 0 0 0 .688-.288.939.939 0 0 0 .288-.688h.048Zm2.24 0c0 .267.096.496.288.688a.94.94 0 0 0 .688.288h.304V34h-1.328v-1.136h.048Zm-2.32-10.304 2.304 2.448.016 8.992h-2.288v-9.44c0-.597-.032-1.077-.096-1.44l-.096-.56h.16Zm10.352.24v9.376c0 .395.016.752.048 1.072a9.411 9.411 0 0 0 .144.976h-.144l-2.32-2.592V22.8h2.272Zm1.28 0v.16h-.288a.94.94 0 0 0-.688.288.961.961 0 0 0-.304.688h-.048V22.8h1.328Zm-4.848 0h1.328v1.136h-.032a.957.957 0 0 0-.304-.688.904.904 0 0 0-.688-.288h-.304v-.16Zm9.444 0v7.04c0 .757.123 1.413.368 1.968.256.555.613.981 1.072 1.28.469.299 1.024.448 1.664.448.651 0 1.211-.139 1.68-.416.48-.288.848-.693 1.104-1.216.256-.523.384-1.141.384-1.856V22.8h1.152v7.152c0 .875-.187 1.632-.56 2.272a3.693 3.693 0 0 1-1.584 1.488c-.683.341-1.509.512-2.48.512-1.131 0-2.085-.17-2.864-.512-.779-.352-1.365-.843-1.76-1.472-.384-.64-.576-1.397-.576-2.272V22.8h2.4Zm-2.352 0v.96h-.048a.73.73 0 0 0-.256-.576.834.834 0 0 0-.592-.224h-.256v-.16h1.152Zm3.456 0v.16h-.256a.893.893 0 0 0-.608.224.752.752 0 0 0-.24.576h-.032v-.96h1.136Zm5.216 0v.96h-.048a.73.73 0 0 0-.256-.576.834.834 0 0 0-.592-.224h-.256v-.16h1.152Zm2.208 0v.16h-.256a.893.893 0 0 0-.608.224.752.752 0 0 0-.24.576h-.032v-.96h1.136Zm4.586 0V34h-2.4V22.8h2.4Zm4.224 10.512.384.688h-4.656v-.688h4.272Zm-.592-5.168v.672h-3.68v-.672h3.68Zm.784-5.344v.688h-4.464V22.8h4.464Zm.976 7.92-.736 3.28h-3.136l.576-.688c.533 0 1.003-.101 1.408-.304a3.092 3.092 0 0 0 1.04-.896c.288-.395.517-.859.688-1.392h.16Zm-1.76-1.936v1.536h-.16v-.128c0-.395-.128-.72-.384-.976s-.581-.39-.976-.4v-.032h1.52Zm0-2.144v1.536h-1.52v-.032c.395-.01.72-.144.976-.4.256-.267.384-.597.384-.992v-.112h.16Zm.784-3.2v1.872h-.16v-.192c0-.49-.149-.885-.448-1.184-.288-.299-.683-.453-1.184-.464v-.032h1.792Zm0-.928v.464l-1.952-.176c.235 0 .48-.016.736-.048.267-.032.512-.07.736-.112.224-.043.384-.085.48-.128Zm-6.768 10.32V34h-1.28v-.16H199.255a.958.958 0 0 0 .704-.288c.203-.203.309-.443.32-.72h.048Zm0-8.864h-.048a.988.988 0 0 0-.32-.704.933.933 0 0 0-.704-.304H199.047v-.16h1.28v1.168Z" fill="#fff"/></g><g filter="url('#filter3_d_8590_532')"><path d="M43.544 84.848V96h-2.4V84.848h2.4Zm3.92-.064v.672h-10.24v-.672h10.24Zm0 .624v1.888l-.16-.016v-.176c0-.501-.15-.896-.448-1.184-.288-.299-.683-.453-1.184-.464v-.048h1.792Zm0-.912v.464l-1.952-.176c.235 0 .48-.016.736-.048.267-.032.512-.07.736-.112.224-.043.384-.085.48-.128Zm-6.272 10.336V96h-1.28v-.16H40.12a.958.958 0 0 0 .704-.288c.203-.203.31-.443.32-.72h.048Zm2.304 0h.048c.01.277.112.517.304.72.203.192.443.288.72.288H44.776V96h-1.28v-1.168ZM39 85.408v.048c-.49.01-.885.165-1.184.464-.288.288-.432.683-.432 1.184v.176l-.16.016v-1.888H39Zm-1.776-.912c.107.043.267.085.48.128.224.043.47.08.736.112.267.032.512.048.736.048l-1.952.176v-.464Zm22.336.304V96h-2.4V84.8h2.4Zm-7.584 0V96h-2.4V84.8h2.4Zm5.328 5.28v.688h-5.488v-.688h5.488Zm-7.68 4.752V96h-1.28v-.16H48.552a.958.958 0 0 0 .704-.288c.203-.203.31-.443.32-.72h.048Zm0-8.864h-.048a.989.989 0 0 0-.32-.704.933.933 0 0 0-.704-.304H48.344v-.16h1.28v1.168Zm2.304 8.864h.048c.01.277.112.517.304.72.203.192.442.288.72.288H53.208V96h-1.28v-1.168Zm0-8.864V84.8h1.28v.16H53a.984.984 0 0 0-.72.304 1.016 1.016 0 0 0-.304.704h-.048Zm5.28 8.864V96h-1.28v-.16H56.136a1.012 1.012 0 0 0 1.024-1.008h.048Zm0-8.864h-.048a.933.933 0 0 0-.304-.704.984.984 0 0 0-.72-.304H55.928v-.16h1.28v1.168Zm2.304 8.864h.048c.01.277.112.517.304.72.203.192.443.288.72.288H60.792V96h-1.28v-1.168Zm0-8.864V84.8h1.28v.16H60.584a.984.984 0 0 0-.72.304 1.016 1.016 0 0 0-.304.704h-.048Zm6.26-1.168V96h-2.4V84.8h2.4Zm4.225 10.512.384.688h-4.656v-.688h4.272Zm-.592-5.168v.672h-3.68v-.672h3.68Zm.784-5.344v.688h-4.464V84.8h4.464Zm.976 7.92L70.429 96h-3.136l.576-.688c.533 0 1.002-.101 1.408-.304a3.089 3.089 0 0 0 1.04-.896 4.85 4.85 0 0 0 .688-1.392h.16Zm-1.76-1.936v1.536h-.16v-.128c0-.395-.128-.72-.384-.976s-.582-.39-.976-.4v-.032h1.52Zm0-2.144v1.536h-1.52v-.032c.394-.01.72-.144.976-.4.256-.267.384-.597.384-.992v-.112h.16Zm.784-3.2v1.872h-.16v-.192c0-.49-.15-.885-.448-1.184-.288-.299-.683-.453-1.184-.464v-.032h1.792Zm0-.928v.464l-1.952-.176c.234 0 .48-.016.736-.048.266-.032.512-.07.736-.112.224-.043.384-.085.48-.128Zm-6.768 10.32V96h-1.28v-.16H62.349a.958.958 0 0 0 .704-.288c.202-.203.31-.443.32-.72h.048Zm0-8.864h-.048a.989.989 0 0 0-.32-.704.933.933 0 0 0-.704-.304H62.14v-.16h1.28v1.168Zm24.637-1.392.128 1.744-4.752 8.24-.16.288a5.018 5.018 0 0 0-.32.672 2.348 2.348 0 0 0-.144.8h-.16l-.624-1.392 6.032-10.352ZM77.21 94.832V96h-1.776v-.16h.256c.288 0 .544-.085.768-.256.224-.181.358-.432.4-.752h.352Zm.704.256v.08c0 .17.059.33.176.48a.592.592 0 0 0 .448.208h.24V96h-.976v-.912h.112Zm.272-10.512h.144l.56 1.6L77.818 96h-1.12l1.488-11.424Zm.144 0 5.232 8.592-.912 3.152-4.736-7.952.416-3.792Zm9.872 0L89.722 96h-2.576l-.8-7.36 1.712-4.064h.144Zm1.024 10.256h.336c.053.32.192.57.416.752.224.17.475.256.752.256h.256V96h-1.76v-1.168Zm-2.176.256h.112V96h-.976v-.144h.24a.56.56 0 0 0 .448-.208.762.762 0 0 0 .176-.48v-.08ZM95.132 84.8V96h-2.4V84.8h2.4Zm4.224 10.512.384.688h-4.656v-.688h4.272Zm-.592-5.168v.672h-3.68v-.672h3.68Zm.784-5.344v.688h-4.464V84.8h4.464Zm.976 7.92L99.788 96h-3.136l.576-.688c.534 0 1.003-.101 1.408-.304a3.088 3.088 0 0 0 1.04-.896c.288-.395.517-.859.688-1.392h.16Zm-1.76-1.936v1.536h-.16v-.128c0-.395-.128-.72-.384-.976s-.581-.39-.976-.4v-.032h1.52Zm0-2.144v1.536h-1.52v-.032c.395-.01.72-.144.976-.4.256-.267.384-.597.384-.992v-.112h.16Zm.784-3.2v1.872h-.16v-.192c0-.49-.15-.885-.448-1.184-.288-.299-.683-.453-1.184-.464v-.032h1.792Zm0-.928v.464l-1.952-.176c.235 0 .48-.016.736-.048.267-.032.512-.07.736-.112.224-.043.384-.085.48-.128Zm-6.768 10.32V96H91.5v-.16H91.708a.958.958 0 0 0 .704-.288c.203-.203.31-.443.32-.72h.048Zm0-8.864h-.048a.988.988 0 0 0-.32-.704.932.932 0 0 0-.704-.304H91.5v-.16h1.28v1.168Zm14.702-1.12V96h-2.4V84.848h2.4Zm3.92-.064v.672h-10.24v-.672h10.24Zm0 .624v1.888l-.16-.016v-.176c0-.501-.15-.896-.448-1.184-.288-.299-.683-.453-1.184-.464v-.048h1.792Zm0-.912v.464l-1.952-.176c.234 0 .48-.016.736-.048.266-.032.512-.07.736-.112.224-.043.384-.085.48-.128Zm-6.272 10.336V96h-1.28v-.16H104.058a.958.958 0 0 0 .704-.288c.202-.203.309-.443.32-.72h.048Zm2.304 0h.048c.01.277.112.517.304.72.202.192.442.288.72.288H108.714V96h-1.28v-1.168Zm-4.496-9.424v.048c-.491.01-.886.165-1.184.464-.288.288-.432.683-.432 1.184v.176l-.16.016v-1.888h1.776Zm-1.776-.912c.106.043.266.085.48.128.224.043.469.08.736.112.266.032.512.048.736.048l-1.952.176v-.464Zm25.999 6.832.144 2.752a4.025 4.025 0 0 1-.944 1.072c-.394.32-.885.581-1.472.784-.586.192-1.28.288-2.08.288-1.301-.01-2.442-.245-3.424-.704-.97-.47-1.722-1.136-2.256-2-.533-.864-.8-1.91-.8-3.136 0-1.195.262-2.224.784-3.088.523-.875 1.27-1.547 2.24-2.016.982-.47 2.15-.704 3.504-.704.854 0 1.616.085 2.288.256.683.17 1.254.379 1.712.624l.016 2.736h-.144c-.288-1.056-.757-1.808-1.408-2.256-.65-.459-1.413-.688-2.288-.688-.853 0-1.584.208-2.192.624-.608.416-1.077 1.003-1.408 1.76-.33.757-.496 1.664-.496 2.72 0 1.056.155 1.968.464 2.736.32.768.768 1.365 1.344 1.792.587.427 1.275.65 2.064.672.822 0 1.515-.133 2.08-.4.566-.267 1.019-.71 1.36-1.328.352-.619.614-1.45.784-2.496h.128Zm5.19-6.528V96h-2.4V84.8h2.4Zm4.224 10.512.384.688h-4.656v-.688h4.272Zm1.168-2.592-.736 3.28h-3.136l.576-.688c.533 0 1.003-.101 1.408-.304a3.092 3.092 0 0 0 1.04-.896c.288-.395.517-.859.688-1.392h.16Zm-7.744 2.112V96h-1.28v-.16H128.927a.958.958 0 0 0 .704-.288c.203-.203.309-.443.32-.72h.048Zm0-8.864h-.048a.988.988 0 0 0-.32-.704.933.933 0 0 0-.704-.304H128.719v-.16h1.28v1.168Zm2.304 0V84.8h1.28v.16H133.375a.985.985 0 0 0-.72.304 1.018 1.018 0 0 0-.304.704h-.048Zm12.566-1.392c1.28 0 2.389.24 3.328.72.949.47 1.68 1.136 2.192 2 .523.864.784 1.899.784 3.104 0 1.195-.261 2.23-.784 3.104-.512.864-1.243 1.536-2.192 2.016-.939.47-2.048.704-3.328.704-1.28 0-2.395-.235-3.344-.704-.939-.48-1.664-1.152-2.176-2.016-.512-.864-.768-1.899-.768-3.104 0-1.195.256-2.224.768-3.088a5.101 5.101 0 0 1 2.176-2.016c.949-.48 2.064-.72 3.344-.72Zm0 10.976c.757 0 1.408-.208 1.952-.624.544-.427.965-1.024 1.264-1.792.299-.768.448-1.68.448-2.736 0-1.056-.149-1.968-.448-2.736-.299-.768-.72-1.36-1.264-1.776-.544-.427-1.195-.64-1.952-.64-.747 0-1.397.213-1.952.64-.544.416-.965 1.008-1.264 1.776-.299.768-.448 1.68-.448 2.736 0 1.056.149 1.968.448 2.736.299.768.72 1.365 1.264 1.792.555.416 1.205.624 1.952.624ZM155.851 84.8V96h-2.4V84.8h2.4Zm-2.352 10.032V96h-1.28v-.16H152.427a.958.958 0 0 0 .704-.288c.203-.203.309-.443.32-.72h.048Zm0-8.864h-.048a.988.988 0 0 0-.32-.704.933.933 0 0 0-.704-.304H152.219v-.16h1.28v1.168Zm2.304 8.864h.048c.011.277.112.517.304.72.203.192.443.288.72.288H157.083V96h-1.28v-1.168Zm0-8.864V84.8h1.28v.16H156.875a.985.985 0 0 0-.72.304 1.018 1.018 0 0 0-.304.704h-.048Zm6.363-1.392a15.781 15.781 0 0 1 1.76.128c.342.032.635.07.88.112.256.032.432.07.528.112l-.192 2.16h-.16c0-.555-.208-.997-.624-1.328-.405-.341-.949-.512-1.632-.512-.618 0-1.12.15-1.504.448-.373.299-.57.661-.592 1.088-.01.32.091.597.304.832.214.235.486.453.816.656l3.056 1.984c.491.277.859.64 1.104 1.088.256.448.368.97.336 1.568-.053 1.045-.453 1.861-1.2 2.448-.746.576-1.76.864-3.04.864-.469 0-.928-.043-1.376-.128a5.635 5.635 0 0 1-1.168-.32 2.64 2.64 0 0 1-.816-.528 2.293 2.293 0 0 1-.112-.848c.011-.33.059-.667.144-1.008.096-.341.214-.624.352-.848h.144c-.042.544.054 1.05.288 1.52.246.459.598.827 1.056 1.104.47.267 1.024.395 1.664.384.704-.01 1.248-.187 1.632-.528.384-.352.576-.773.576-1.264 0-.33-.101-.63-.304-.896-.192-.267-.512-.523-.96-.768l-2.8-1.856c-.565-.32-.976-.73-1.232-1.232a2.935 2.935 0 0 1-.304-1.632c.054-.555.219-1.04.496-1.456a2.784 2.784 0 0 1 1.136-.992c.491-.235 1.072-.352 1.744-.352Zm3.184.16-.032.336h-1.888v-.336h1.92Zm8.178.112V96h-2.4V84.848h2.4Zm3.92-.064v.672h-10.24v-.672h10.24Zm0 .624v1.888l-.16-.016v-.176c0-.501-.149-.896-.448-1.184-.288-.299-.682-.453-1.184-.464v-.048h1.792Zm0-.912v.464l-1.952-.176c.235 0 .48-.016.736-.048.267-.032.512-.07.736-.112.224-.043.384-.085.48-.128Zm-6.272 10.336V96h-1.28v-.16H170.104a.957.957 0 0 0 .704-.288 1.04 1.04 0 0 0 .32-.72h.048Zm2.304 0h.048c.011.277.112.517.304.72.203.192.443.288.72.288H174.76V96h-1.28v-1.168Zm-4.496-9.424v.048c-.49.01-.885.165-1.184.464-.288.288-.432.683-.432 1.184v.176l-.16.016v-1.888h1.776Zm-1.776-.912c.107.043.267.085.48.128.224.043.47.08.736.112.267.032.512.048.736.048l-1.952.176v-.464Zm14.752.304V96h-2.4V84.8h2.4Zm4.224 10.512.384.688h-4.656v-.688h4.272Zm-.592-5.168v.672h-3.68v-.672h3.68Zm.784-5.344v.688h-4.464V84.8h4.464Zm.976 7.92-.736 3.28h-3.136l.576-.688c.534 0 1.003-.101 1.408-.304a3.082 3.082 0 0 0 1.04-.896c.288-.395.518-.859.688-1.392h.16Zm-1.76-1.936v1.536h-.16v-.128c0-.395-.128-.72-.384-.976s-.581-.39-.976-.4v-.032h1.52Zm0-2.144v1.536h-1.52v-.032c.395-.01.72-.144.976-.4.256-.267.384-.597.384-.992v-.112h.16Zm.784-3.2v1.872h-.16v-.192c0-.49-.149-.885-.448-1.184-.288-.299-.682-.453-1.184-.464v-.032h1.792Zm0-.928v.464l-1.952-.176c.235 0 .48-.016.736-.048.267-.032.512-.07.736-.112.224-.043.384-.085.48-.128Zm-6.768 10.32V96h-1.28v-.16H178.536a.957.957 0 0 0 .704-.288 1.04 1.04 0 0 0 .32-.72h.048Zm0-8.864h-.048a.984.984 0 0 0-.32-.704.931.931 0 0 0-.704-.304H178.328v-.16h1.28v1.168Zm12.239-1.168h2.064c.48 0 .949.053 1.408.16.459.107.864.277 1.216.512.363.235.651.544.864.928.213.384.32.859.32 1.424 0 .448-.096.896-.288 1.344a2.92 2.92 0 0 1-.848 1.136c-.384.31-.88.496-1.488.56.341.107.651.299.928.576.288.277.523.555.704.832.011.021.069.117.176.288.117.17.256.384.416.64.171.245.347.496.528.752.181.256.347.48.496.672.235.288.448.523.64.704.192.17.395.299.608.384.213.075.459.117.736.128V96h-1.568a7.845 7.845 0 0 1-1.568-.144 3.653 3.653 0 0 1-1.248-.528 3.37 3.37 0 0 1-.944-.992 7.371 7.371 0 0 1-.288-.48l-.304-.64a17.911 17.911 0 0 0-.32-.64 69.903 69.903 0 0 1-.256-.576 4.969 4.969 0 0 1-.16-.4c-.139-.341-.304-.597-.496-.768a1.094 1.094 0 0 0-.592-.304v-.16h.496c.288 0 .565-.059.832-.176a1.88 1.88 0 0 0 .736-.576c.213-.267.363-.635.448-1.104.021-.096.037-.208.048-.336a1.88 1.88 0 0 0 .016-.432c-.032-.768-.224-1.328-.576-1.68a1.809 1.809 0 0 0-1.312-.56 3.827 3.827 0 0 0-.496 0h-.768c0-.01-.016-.07-.048-.176a4.051 4.051 0 0 0-.08-.352l-.032-.176Zm.208 0V96h-2.4V84.8h2.4Zm-2.352 10.032V96h-1.28v-.16H188.631a.958.958 0 0 0 .704-.288c.203-.203.309-.443.32-.72h.048Zm0-8.864h-.048a.988.988 0 0 0-.32-.704.933.933 0 0 0-.704-.304H188.423v-.16h1.28v1.168Zm2.304 8.864h.048a1.013 1.013 0 0 0 1.024 1.008h.192V96h-1.264v-1.168Zm11.956-10.256a15.781 15.781 0 0 1 1.76.128c.342.032.635.07.88.112.256.032.432.07.528.112l-.192 2.16h-.16c0-.555-.208-.997-.624-1.328-.405-.341-.949-.512-1.632-.512-.618 0-1.12.15-1.504.448-.373.299-.57.661-.592 1.088-.01.32.091.597.304.832.214.235.486.453.816.656l3.056 1.984c.491.277.859.64 1.104 1.088.256.448.368.97.336 1.568-.053 1.045-.453 1.861-1.2 2.448-.746.576-1.76.864-3.04.864-.469 0-.928-.043-1.376-.128a5.635 5.635 0 0 1-1.168-.32 2.64 2.64 0 0 1-.816-.528 2.293 2.293 0 0 1-.112-.848c.011-.33.059-.667.144-1.008.096-.341.214-.624.352-.848h.144c-.042.544.054 1.05.288 1.52.246.459.598.827 1.056 1.104.47.267 1.024.395 1.664.384.704-.01 1.248-.187 1.632-.528.384-.352.576-.773.576-1.264 0-.33-.101-.63-.304-.896-.192-.267-.512-.523-.96-.768l-2.8-1.856c-.565-.32-.976-.73-1.232-1.232a2.935 2.935 0 0 1-.304-1.632c.054-.555.219-1.04.496-1.456a2.784 2.784 0 0 1 1.136-.992c.491-.235 1.072-.352 1.744-.352Zm3.184.16-.032.336h-1.888v-.336h1.92Z" fill="#fff"/></g><defs><filter id="filter0_d_8590_532" x="85.64" y="27.24" width="166.541" height="64.672" filterUnits="userSpaceOnUse" color-interpolation-filters="sRGB"><feFlood flood-opacity="0" result="BackgroundImageFix"/><feColorMatrix in="SourceAlpha" values="0 0 0 0 0 0 0 0 0 0 0 0 0 0 0 0 0 0 127 0" result="hardAlpha"/><feOffset dx="18" dy="4"/><feGaussianBlur stdDeviation="13"/><feComposite in2="hardAlpha" operator="out"/><feColorMatrix values="0 0 0 0 0 0 0 0 0 0 0 0 0 0 0 0 0 0 0.44 0"/><feBlend in2="BackgroundImageFix" result="effect1_dropShadow_8590_532"/><feBlend in="SourceGraphic" in2="effect1_dropShadow_8590_532" result="shape"/></filter><filter id="filter1_d_8590_532" x="79.64" y="89.576" width="172.619" height="64.32" filterUnits="userSpaceOnUse" color-interpolation-filters="sRGB"><feFlood flood-opacity="0" result="BackgroundImageFix"/><feColorMatrix in="SourceAlpha" values="0 0 0 0 0 0 0 0 0 0 0 0 0 0 0 0 0 0 127 0" result="hardAlpha"/><feOffset dx="18" dy="4"/><feGaussianBlur stdDeviation="13"/><feComposite in2="hardAlpha" operator="out"/><feColorMatrix values="0 0 0 0 0 0 0 0 0 0 0 0 0 0 0 0 0 0 0.44 0"/><feBlend in2="BackgroundImageFix" result="effect1_dropShadow_8590_532"/><feBlend in="SourceGraphic" in2="effect1_dropShadow_8590_532" result="shape"/></filter><filter id="filter2_d_8590_532" x=".224" y=".48" width="251.847" height="63.84" filterUnits="userSpaceOnUse" color-interpolation-filters="sRGB"><feFlood flood-opacity="0" result="BackgroundImageFix"/><feColorMatrix in="SourceAlpha" values="0 0 0 0 0 0 0 0 0 0 0 0 0 0 0 0 0 0 127 0" result="hardAlpha"/><feOffset dx="18" dy="4"/><feGaussianBlur stdDeviation="13"/><feComposite in2="hardAlpha" operator="out"/><feColorMatrix values="0 0 0 0 0 0 0 0 0 0 0 0 0 0 0 0 0 0 0.44 0"/><feBlend in2="BackgroundImageFix" result="effect1_dropShadow_8590_532"/><feBlend in="SourceGraphic" in2="effect1_dropShadow_8590_532" result="shape"/></filter><filter id="filter3_d_8590_532" x="29.224" y="62.496" width="222.867" height="63.824" filterUnits="userSpaceOnUse" color-interpolation-filters="sRGB"><feFlood flood-opacity="0" result="BackgroundImageFix"/><feColorMatrix in="SourceAlpha" values="0 0 0 0 0 0 0 0 0 0 0 0 0 0 0 0 0 0 127 0" result="hardAlpha"/><feOffset dx="18" dy="4"/><feGaussianBlur stdDeviation="13"/><feComposite in2="hardAlpha" operator="out"/><feColorMatrix values="0 0 0 0 0 0 0 0 0 0 0 0 0 0 0 0 0 0 0.44 0"/><feBlend in2="BackgroundImageFix" result="effect1_dropShadow_8590_532"/><feBlend in="SourceGraphic" in2="effect1_dropShadow_8590_532" result="shape"/></filter></defs></svg>